<svg xmlns="http://www.w3.org/2000/svg" width="1840.000000pt" height="411.000000pt" viewBox="0 0 1840.000000 411.000000" preserveAspectRatio="xMidYMid meet"><g transform="translate(0.000000,411.000000) scale(0.100000,-0.100000)" fill="#000000" stroke="none"><path d="M693 3342 l-683 -765 0 -579 0 -578 100 0 100 0 0 575 0 575 285 0 285 0 0 275 0 275 739 2 739 3 -419 470 c-231 259 -430 480 -442 491 l-22 22 -682 -766z"></path><path d="M14908 3850 c-113 -20 -229 -102 -281 -198 -44 -81 -60 -170 -55 -312 4 -97 10 -138 27 -181 46 -121 118 -195 231 -241 80 -32 260 -32 342 1 113 44 210 164 238 292 20 89 9 320 -18 389 -44 112 -139 204 -245 235 -65 19 -177 27 -239 15z m217 -128 c54 -27 99 -76 127 -137 21 -46 23 -64 23 -215 -1 -146 -3 -170 -21 -210 -51 -111 -130 -160 -254 -160 -127 0 -202 48 -257 165 -27 57 -28 67 -28 210 0 150 0 151 33 217 56 115 136 161 267 154 46 -2 84 -10 110 -24z"></path><path d="M15930 3849 c-156 -26 -274 -136 -316 -293 -19 -72 -18 -295 2 -371 44 -173 178 -281 359 -293 195 -12 337 54 404 190 17 34 31 74 31 90 l0 28 -68 0 -68 0 -11 -42 c-30 -112 -105 -163 -243 -163 -96 0 -141 18 -196 77 -68 72 -88 153 -82 334 3 106 8 138 26 178 53 118 130 168 255 168 128 0 211 -56 238 -161 l13 -51 72 0 72 0 -9 43 c-15 66 -56 143 -96 178 -92 80 -232 113 -383 88z"></path><path d="M5100 3370 l0 -470 70 0 70 0 0 215 0 215 63 -1 62 0 194 -215 193 -214 84 0 c46 0 84 3 84 6 0 5 -312 355 -397 445 l-34 36 177 199 c97 109 188 211 202 227 l26 27 -90 0 -90 0 -183 -205 -183 -205 -54 0 -54 0 0 205 0 205 -70 0 -70 0 0 -470z"></path><path d="M6052 3373 l3 -468 68 -3 67 -3 0 186 0 185 153 0 c176 0 248 10 320 43 103 48 151 125 151 242 0 41 -7 85 -16 106 -26 59 -83 114 -150 145 l-63 29 -268 3 -267 3 2 -468z m491 355 c56 -17 112 -73 126 -126 23 -85 -12 -161 -94 -202 -47 -24 -59 -25 -215 -25 l-165 0 -3 183 -2 182 156 0 c94 0 173 -5 197 -12z"></path><path d="M6996 3378 c-109 -255 -201 -466 -203 -470 -2 -5 29 -8 69 -8 l74 0 50 123 50 122 223 0 223 0 50 -122 51 -123 70 0 c63 0 69 2 64 19 -2 10 -92 221 -198 469 l-194 451 -65 1 -65 0 -199 -462z m357 82 l84 -205 -89 -3 c-48 -1 -128 -1 -177 0 l-89 3 86 212 c48 117 90 209 94 205 3 -4 44 -99 91 -212z"></path><path d="M7872 3373 l3 -468 573 -3 572 -2 0 470 0 470 -70 0 -70 0 0 -420 0 -420 -177 2 -178 3 -3 418 -2 417 -70 0 -70 0 0 -420 0 -420 -180 0 -180 0 0 420 0 420 -75 0 -75 0 2 -467z"></path><path d="M9280 3370 l0 -470 335 0 335 0 0 50 0 50 -265 0 -265 0 0 170 0 170 230 0 230 0 0 50 0 50 -230 0 -230 0 0 150 0 150 260 0 260 0 0 50 0 50 -330 0 -330 0 0 -470z"></path><path d="M10130 3370 l0 -471 68 3 67 3 3 218 2 217 265 0 265 0 0 -220 0 -220 70 0 70 0 0 470 0 470 -70 0 -70 0 0 -200 0 -200 -265 0 -265 0 0 200 0 200 -70 0 -70 0 0 -470z"></path><path d="M11317 3406 c-103 -239 -194 -451 -202 -470 l-15 -36 73 0 73 0 50 123 49 122 223 0 223 0 51 -122 50 -123 69 0 c49 0 69 4 68 13 0 6 -89 217 -198 467 l-197 455 -65 3 -65 3 -187 -435z m342 61 c45 -109 81 -202 81 -207 0 -6 -70 -10 -176 -10 -97 0 -174 4 -172 8 120 298 173 421 179 415 4 -5 44 -97 88 -206z"></path><path d="M12378 3825 c-166 -46 -247 -180 -206 -343 14 -56 93 -142 151 -163 20 -7 37 -16 37 -19 0 -3 -45 -80 -101 -171 -56 -90 -110 -179 -121 -196 l-20 -33 76 0 75 0 111 185 111 185 119 0 120 0 2 -182 3 -183 70 0 70 0 3 468 2 467 -227 -1 c-154 0 -243 -5 -275 -14z m352 -271 l0 -186 -142 4 c-184 5 -234 27 -273 121 -20 48 -19 93 4 144 36 79 99 102 279 103 l132 0 0 -186z"></path><path d="M13676 3708 c-22 -409 -53 -550 -147 -669 -27 -35 -35 -39 -75 -39 l-44 0 0 -165 0 -165 70 0 70 0 0 115 0 115 385 0 385 0 0 -115 0 -115 70 0 70 0 0 165 0 165 -70 0 -70 0 0 420 0 420 -319 0 -318 0 -7 -132z m502 -335 l-3 -368 -253 -3 c-140 -1 -252 1 -250 5 1 5 20 42 41 83 51 104 76 210 88 380 5 80 12 173 15 208 l6 62 179 0 179 0 -2 -367z"></path><path d="M16612 3373 l3 -468 67 -3 68 -3 2 213 3 213 61 3 60 3 195 -215 194 -215 83 -1 c45 0 82 3 82 8 0 4 -95 112 -211 241 -115 128 -208 237 -207 242 2 4 84 99 183 210 99 112 186 211 193 221 12 17 8 18 -75 17 l-88 0 -180 -204 -180 -204 -57 0 -58 -1 0 205 0 205 -70 0 -70 0 2 -467z"></path><path d="M17667 3377 c-109 -254 -198 -465 -197 -469 0 -5 31 -8 69 -8 l69 0 50 123 51 122 222 0 223 0 50 -122 50 -123 74 0 c40 0 71 3 69 8 -2 4 -93 215 -203 470 l-199 462 -65 0 -65 -1 -198 -462z m358 83 c42 -102 79 -191 82 -197 4 -10 -34 -13 -171 -13 -113 0 -176 4 -176 10 0 10 156 395 167 414 4 5 10 1 14 -10 4 -10 42 -102 84 -204z"></path><path d="M862 2243 l3 -818 173 -3 172 -2 0 490 0 490 -115 0 -115 0 0 85 0 85 115 0 115 0 0 215 0 215 190 0 190 0 0 -215 0 -216 78 3 77 3 3 213 2 212 185 0 185 0 0 -215 0 -216 78 3 77 3 3 213 2 212 185 0 185 0 0 -215 0 -215 80 0 80 0 0 215 0 215 185 0 185 0 2 -212 3 -213 78 -3 77 -3 0 216 0 215 190 0 190 0 0 -215 0 -215 75 0 75 0 0 215 0 215 190 0 190 0 0 -215 0 -215 50 0 50 0 0 -85 0 -85 -50 0 -50 0 0 -490 0 -490 70 0 70 0 0 820 0 820 -1765 0 -1765 0 2 -817z"></path><path d="M1060 2480 l0 -30 1620 0 1620 0 0 30 0 30 -1620 0 -1620 0 0 -30z"></path><path d="M1590 1910 l0 -491 78 3 77 3 0 485 0 485 -77 3 -78 3 0 -491z"></path><path d="M2120 1910 l0 -491 78 3 77 3 0 485 0 485 -77 3 -78 3 0 -491z"></path><path d="M2650 1910 l0 -490 80 0 80 0 0 490 0 490 -80 0 -80 0 0 -490z"></path><path d="M3185 2388 c-3 -7 -4 -227 -3 -488 l3 -475 78 -3 77 -3 0 491 0 490 -75 0 c-51 0 -77 -4 -80 -12z"></path><path d="M3720 1910 l0 -490 75 0 75 0 0 490 0 490 -75 0 -75 0 0 -490z"></path><path d="M5090 1895 l0 -245 35 0 35 0 0 215 0 215 130 0 130 0 0 30 0 30 -165 0 -165 0 0 -245z"></path><path d="M5514 2002 c-74 -35 -111 -107 -101 -195 8 -62 44 -119 90 -140 54 -26 156 -23 197 6 55 37 74 70 78 142 8 121 -51 193 -166 201 -42 4 -67 0 -98 -14z m131 -48 c80 -38 88 -186 13 -238 -12 -9 -42 -16 -66 -16 -148 0 -146 264 1 269 11 1 34 -6 52 -15z"></path><path d="M6319 2010 c-84 -25 -123 -89 -117 -191 4 -76 21 -108 78 -146 67 -46 211 -23 253 40 42 65 44 169 3 230 -40 61 -138 91 -217 67z m118 -60 c52 -31 72 -91 53 -160 -17 -63 -49 -90 -106 -90 -39 0 -51 5 -80 34 -31 31 -34 40 -34 90 0 66 19 109 58 130 37 21 71 20 109 -4z"></path><path d="M7172 1999 c-65 -32 -86 -70 -90 -159 -3 -66 -1 -79 20 -110 40 -58 82 -80 156 -80 105 0 165 47 183 144 9 51 -5 119 -33 159 -45 63 -156 85 -236 46z m138 -44 c79 -41 85 -185 11 -242 -9 -7 -37 -13 -62 -13 -41 0 -51 4 -78 35 -27 31 -31 43 -31 91 0 64 19 108 58 128 35 20 66 20 102 1z"></path><path d="M7612 1999 c-51 -26 -78 -61 -91 -121 -21 -91 12 -174 82 -209 56 -29 168 -24 215 10 34 24 37 38 10 54 -11 8 -23 5 -43 -11 -20 -16 -42 -22 -77 -22 -43 0 -54 4 -84 34 -19 19 -34 43 -34 55 0 20 5 21 136 21 l137 0 -6 55 c-7 70 -32 111 -82 135 -53 26 -109 25 -163 -1z m127 -43 c25 -13 51 -52 51 -76 0 -6 -43 -10 -100 -10 -110 0 -117 5 -79 54 36 45 80 56 128 32z"></path><path d="M8238 2002 c-30 -16 -38 -17 -38 -6 0 9 -12 14 -35 14 l-35 0 0 -250 0 -250 35 0 35 0 0 85 0 86 30 -16 c16 -8 55 -15 89 -15 50 0 65 4 92 27 43 36 59 79 59 159 0 115 -47 174 -144 181 -37 3 -61 -1 -88 -15z m120 -58 c30 -19 42 -53 42 -115 0 -55 -20 -103 -49 -119 -33 -17 -96 -12 -125 11 -25 19 -26 25 -26 108 0 78 2 90 23 108 38 35 87 38 135 7z"></path><path d="M8642 1999 c-51 -26 -78 -61 -91 -121 -21 -91 12 -174 82 -209 56 -29 168 -24 215 10 34 24 37 38 10 54 -11 8 -23 5 -43 -11 -20 -16 -42 -22 -77 -22 -43 0 -54 4 -84 34 -19 19 -34 43 -34 55 0 20 5 21 135 21 l135 0 0 42 c0 23 -9 61 -21 84 -37 77 -140 106 -227 63z m127 -43 c25 -13 51 -52 51 -76 0 -6 -43 -10 -100 -10 -110 0 -117 5 -79 54 36 45 80 56 128 32z"></path><path d="M9672 1999 c-53 -26 -80 -63 -91 -126 -18 -94 12 -169 82 -205 56 -28 168 -23 215 11 34 24 37 38 10 54 -11 8 -23 5 -43 -11 -20 -16 -42 -22 -77 -22 -43 0 -54 4 -84 34 -19 19 -34 43 -34 55 0 20 5 21 135 21 l135 0 0 42 c0 23 -9 61 -21 84 -37 77 -140 106 -227 63z m127 -43 c25 -13 51 -52 51 -76 0 -6 -43 -10 -100 -10 -110 0 -117 5 -79 54 36 45 80 56 128 32z"></path><path d="M10974 2002 c-74 -35 -110 -106 -101 -199 11 -102 73 -153 188 -153 91 0 178 54 129 80 -15 8 -27 5 -52 -10 -40 -24 -114 -26 -146 -4 -22 15 -52 63 -52 83 0 7 52 11 138 13 l137 3 -3 50 c-6 92 -54 143 -143 151 -40 4 -64 0 -95 -14z m137 -58 c10 -9 22 -29 28 -45 l10 -29 -104 0 c-113 0 -115 1 -78 55 31 46 103 56 144 19z"></path><path d="M5820 1985 c0 -24 2 -25 70 -25 l70 0 0 -155 0 -155 35 0 35 0 0 155 0 155 65 0 c63 0 65 1 65 25 l0 25 -170 0 -170 0 0 -25z"></path><path d="M6660 1830 l0 -180 108 0 c59 0 125 5 147 10 77 18 112 101 62 148 -13 12 -30 22 -38 22 -8 0 -1 10 16 24 22 18 29 32 29 59 0 74 -49 97 -209 97 l-115 0 0 -180z m240 110 c24 -24 24 -30 6 -55 -12 -16 -29 -20 -95 -23 l-81 -4 0 51 0 51 75 0 c62 0 79 -4 95 -20z m8 -146 c31 -21 26 -64 -8 -81 -14 -7 -58 -13 -97 -13 l-73 0 0 55 0 55 78 0 c55 0 84 -5 100 -16z"></path><path d="M8980 1830 l0 -180 250 0 250 0 0 180 0 180 -35 0 -35 0 0 -155 0 -156 -72 3 -73 3 -3 153 -3 152 -34 0 -35 0 0 -155 0 -155 -70 0 -70 0 0 155 0 155 -35 0 -35 0 0 -180z"></path><path d="M10010 1830 l0 -180 35 0 35 0 0 80 0 80 90 0 90 0 0 -80 0 -80 35 0 35 0 0 180 0 180 -35 0 -35 0 0 -75 0 -75 -90 0 -90 0 0 75 0 75 -35 0 -35 0 0 -180z"></path><path d="M10450 1830 l0 -180 35 0 c32 0 38 6 122 125 48 68 91 124 96 125 4 0 7 -56 7 -125 l0 -125 35 0 35 0 0 180 0 180 -38 0 c-37 0 -40 -3 -127 -126 l-90 -127 -3 127 -3 126 -34 0 -35 0 0 -180z"></path><path d="M11450 1980 l0 -30 3460 0 3460 0 0 30 0 30 -3460 0 -3460 0 0 -30z"></path><path d="M5033 856 c-14 -23 -51 -37 -140 -52 -144 -25 -222 -75 -269 -170 -24 -48 -28 -72 -32 -163 -3 -96 -1 -110 20 -151 27 -53 92 -105 151 -122 65 -18 193 -15 256 6 136 47 201 203 133 320 -71 122 -299 155 -436 62 l-28 -19 7 24 c23 74 100 120 240 145 136 23 195 59 195 119 0 20 -86 21 -97 1z m-37 -312 c50 -37 66 -67 66 -123 -1 -105 -69 -171 -176 -171 -102 0 -186 75 -186 165 1 56 35 114 82 136 58 27 174 23 214 -7z"></path><path d="M10934 845 c-15 -17 -44 -26 -115 -39 -117 -21 -187 -54 -238 -112 -55 -63 -75 -128 -76 -244 0 -85 3 -100 27 -141 49 -83 136 -123 263 -123 128 1 196 28 259 107 29 36 31 44 31 121 0 73 -3 87 -27 123 -19 28 -45 50 -85 70 -51 25 -69 28 -153 28 -95 0 -105 -3 -202 -53 -21 -10 -4 29 27 65 42 49 84 67 222 93 56 10 114 27 129 36 22 15 54 67 54 89 0 3 -21 5 -47 4 -36 -1 -53 -7 -69 -24z m-34 -297 c60 -31 83 -75 76 -147 -6 -66 -28 -98 -87 -129 -37 -20 -55 -23 -108 -19 -70 5 -102 23 -139 78 -20 29 -23 44 -20 96 4 69 27 104 83 129 49 22 144 18 195 -8z"></path><path d="M1240 825 c-109 -31 -198 -115 -217 -204 -13 -61 -8 -213 9 -252 23 -53 84 -117 139 -145 26 -13 80 -29 120 -35 182 -28 364 49 398 169 l10 32 -60 0 c-57 0 -59 -1 -73 -33 -42 -101 -218 -139 -333 -71 -64 37 -94 96 -100 197 -8 133 24 210 107 257 39 22 58 25 135 25 111 0 156 -22 187 -92 l19 -43 59 0 59 0 -9 30 c-21 74 -75 127 -162 157 -63 22 -220 26 -288 8z"></path><path d="M2737 670 c-89 -16 -177 -74 -177 -116 0 -21 106 -19 114 2 3 8 27 24 52 36 103 45 224 3 224 -79 l0 -33 -88 0 c-49 0 -115 -5 -148 -11 -188 -34 -237 -182 -84 -257 76 -38 193 -38 268 -1 l51 25 10 -23 c9 -20 18 -23 70 -23 l59 0 -14 47 c-9 30 -14 96 -14 191 l0 144 -38 38 c-54 54 -175 80 -285 60z m211 -302 c-3 -47 -7 -55 -36 -75 -98 -66 -254 -40 -254 42 0 56 65 84 200 85 l93 0 -3 -52z"></path><path d="M3427 670 c-145 -25 -227 -124 -215 -263 6 -70 34 -124 87 -164 53 -41 107 -56 201 -57 124 0 233 52 258 124 l11 30 -50 0 c-44 0 -53 -4 -80 -35 -51 -58 -151 -72 -229 -32 -61 31 -84 73 -84 157 0 113 50 167 162 177 73 6 139 -25 161 -75 14 -32 17 -33 65 -30 48 3 51 4 47 28 -9 63 -86 121 -185 139 -66 12 -80 12 -149 1z"></path><path d="M5498 670 c-70 -12 -148 -58 -183 -108 -26 -38 -30 -54 -33 -121 -3 -64 0 -85 17 -118 45 -89 142 -137 276 -137 187 0 299 92 298 244 0 144 -95 230 -268 244 -33 3 -81 1 -107 -4z m143 -71 c40 -14 85 -53 105 -91 22 -42 18 -126 -9 -172 -33 -60 -95 -89 -174 -83 -109 8 -173 72 -173 172 0 132 122 217 251 174z"></path><path d="M8019 670 c-150 -27 -242 -144 -220 -280 21 -131 127 -204 296 -204 187 0 298 91 298 244 0 144 -95 230 -268 244 -33 3 -81 1 -106 -4z m142 -71 c40 -14 85 -53 105 -91 22 -42 18 -126 -9 -172 -64 -114 -260 -114 -324 0 -26 45 -30 118 -9 167 36 85 142 128 237 96z"></path><path d="M12157 670 c-26 -5 -63 -17 -81 -28 l-34 -20 -6 24 c-6 21 -12 24 -56 24 l-50 0 0 -330 0 -330 55 0 55 0 0 110 c0 61 2 110 4 110 2 0 25 -10 52 -22 36 -16 70 -22 129 -22 143 -2 231 62 257 187 15 70 0 152 -36 208 -47 70 -175 109 -289 89z m136 -88 c55 -31 77 -76 77 -152 0 -73 -19 -114 -72 -153 -52 -39 -174 -32 -232 14 -25 20 -26 23 -26 133 0 106 1 114 24 135 55 52 162 63 229 23z"></path><path d="M12807 670 c-89 -16 -177 -74 -177 -116 0 -21 106 -19 114 2 3 8 27 24 52 36 103 45 224 3 224 -79 l0 -33 -88 0 c-170 0 -279 -37 -308 -106 -29 -70 -5 -122 75 -161 48 -24 68 -28 137 -27 67 0 91 5 133 26 l52 26 9 -24 c9 -22 16 -24 69 -24 l59 0 -14 47 c-9 30 -14 96 -14 191 l0 144 -38 38 c-54 54 -175 80 -285 60z m211 -302 c-3 -47 -7 -55 -36 -75 -98 -66 -254 -40 -254 42 0 56 65 84 200 85 l93 0 -3 -52z"></path><path d="M13501 670 c-179 -37 -271 -206 -194 -356 22 -45 95 -98 156 -116 53 -15 190 -15 242 0 43 12 125 61 125 74 0 5 -15 16 -34 25 -32 15 -36 15 -63 -4 -68 -48 -187 -56 -255 -16 -40 23 -78 77 -78 109 l0 24 220 0 220 0 0 48 c-1 90 -63 175 -148 200 -57 16 -142 22 -191 12z m168 -88 c30 -21 66 -87 56 -102 -9 -14 -325 -14 -325 0 0 38 56 100 105 119 42 15 133 6 164 -17z"></path><path d="M14709 670 c-135 -24 -219 -117 -219 -245 0 -154 109 -240 305 -238 99 0 156 16 213 60 l34 26 -31 20 -32 20 -50 -28 c-92 -50 -202 -45 -271 13 -32 27 -63 86 -53 102 4 6 97 10 227 10 l221 0 -7 56 c-7 60 -32 118 -63 146 -52 48 -180 75 -274 58z m148 -79 c43 -20 73 -62 73 -101 0 -19 -5 -20 -160 -20 -178 0 -180 1 -140 65 42 68 145 93 227 56z"></path><path d="M16382 669 c-29 -5 -70 -18 -91 -29 -38 -19 -91 -72 -91 -91 0 -5 25 -9 56 -9 48 0 59 4 75 24 57 73 234 55 263 -26 18 -50 5 -58 -93 -58 -199 0 -311 -55 -311 -152 0 -76 68 -130 181 -143 61 -8 160 12 203 40 23 15 24 15 30 -10 6 -23 10 -25 67 -25 59 0 61 1 54 23 -5 12 -11 96 -14 187 -6 175 -11 195 -58 228 -58 40 -175 58 -271 41z m218 -297 c0 -34 -5 -54 -18 -65 -32 -29 -96 -50 -154 -50 -63 0 -102 19 -120 59 -10 20 -8 29 9 52 27 36 79 50 191 51 l92 1 0 -48z"></path><path d="M17072 669 c-137 -23 -212 -108 -212 -241 1 -107 46 -175 145 -219 77 -34 210 -33 288 4 64 29 117 78 117 108 0 16 -8 19 -49 19 -41 0 -51 -4 -66 -26 -49 -76 -203 -85 -278 -16 -72 67 -58 231 25 282 91 55 227 26 259 -57 7 -20 15 -23 59 -23 45 0 50 2 50 23 0 36 -46 93 -93 116 -41 20 -141 42 -177 40 -8 -1 -39 -5 -68 -10z"></path><path d="M1850 430 l0 -240 55 0 55 0 2 203 3 202 150 0 150 0 3 -202 2 -203 55 0 55 0 0 240 0 240 -265 0 -265 0 0 -240z"></path><path d="M3907 664 c-4 -4 -7 -112 -7 -241 l0 -233 58 0 59 0 149 170 149 171 3 -171 2 -170 55 0 55 0 0 240 0 240 -54 0 -54 0 -149 -169 -148 -169 -5 167 -5 166 -50 3 c-28 2 -54 0 -58 -4z"></path><path d="M6552 566 c4 -122 15 -146 94 -186 45 -23 59 -25 181 -25 l133 0 0 -82 0 -83 55 0 55 0 0 240 0 240 -55 0 -55 0 0 -115 0 -115 -27 -11 c-16 -6 -70 -9 -120 -7 -86 3 -95 5 -120 31 -26 25 -28 34 -31 122 l-4 95 -55 0 -55 0 4 -104z"></path><path d="M7190 635 l0 -35 110 0 110 0 0 -205 0 -205 55 0 55 0 0 205 0 205 110 0 110 0 0 35 0 35 -275 0 -275 0 0 -35z"></path><path d="M8860 430 l0 -242 208 4 c169 4 215 8 250 22 92 39 120 121 60 178 -17 16 -45 32 -61 35 l-30 6 36 19 c73 37 84 116 24 162 -52 39 -102 48 -299 53 l-188 5 0 -242z m383 147 c33 -21 35 -56 6 -83 -18 -16 -40 -19 -150 -22 l-129 -4 0 67 0 67 123 -3 c97 -3 129 -8 150 -22z m2 -191 c46 -20 61 -50 40 -82 -24 -37 -54 -44 -191 -44 l-124 0 0 70 0 70 120 0 c81 0 132 -5 155 -14z"></path><path d="M9570 429 l0 -241 188 4 c170 3 192 6 240 27 127 57 135 190 16 251 -43 22 -64 26 -189 30 l-140 5 -3 83 -3 82 -54 0 -55 0 0 -241z m331 1 c84 -23 105 -103 40 -147 -30 -21 -46 -23 -147 -23 l-114 0 0 83 c0 46 3 87 7 90 10 11 174 8 214 -3z"></path><path d="M10220 430 l0 -240 55 0 55 0 0 240 0 240 -55 0 -55 0 0 -240z"></path><path d="M11220 430 l0 -240 58 0 57 1 150 172 150 172 3 -173 2 -172 55 0 55 0 0 240 0 240 -57 0 -58 0 -150 -172 -150 -172 -3 172 -2 172 -55 0 -55 0 0 -240z"></path><path d="M13907 663 c-4 -3 -7 -19 -7 -35 l0 -28 110 0 110 0 0 -205 0 -205 55 0 55 0 0 205 0 205 116 0 115 0 -3 33 -3 32 -271 3 c-149 1 -273 -1 -277 -5z"></path><path d="M15500 430 l0 -240 55 0 55 0 0 100 0 100 150 0 150 0 0 -100 0 -100 60 0 60 0 -2 238 -3 237 -55 0 -55 0 -3 -102 -3 -103 -149 0 -150 0 0 105 0 105 -55 0 -55 0 0 -240z"></path><path d="M6008 230 c-3 -44 -11 -69 -31 -97 l-27 -38 30 -14 c26 -13 33 -13 56 0 45 23 77 83 82 150 l4 59 -55 0 -55 0 -4 -60z"></path></g></svg>